<svg xmlns="http://www.w3.org/2000/svg" viewBox="0 0 124 72.7"><path fill="#F90" d="M97.5 19.9v.7l-10-.1c-2.7 0-4.9 2.2-4.9 4.9 0 2-1.5 3.6-3.5 3.7L8 32.5c-1.9.1-1.9 3.9-.1 4.1L79 42.3c1.9.2 3.4 1.8 3.3 3.8v.5c0 2.8 2.1 5 4.8 5.1l10 .1v1c0 .5.4.9.9.9h.2c.5 0 .9-.4.9-.9l.4-32.9c0-.5-.4-.9-.9-.9h-.2c-.5-.1-.9.4-.9.9z"/><path fill="#F95D5D" d="M117.1 52.1v-.8l-4.9-.2-9.9-.4 9.9-.1 4.9-.1v-1l-4.9-.2-9.9-.4 9.9-.1 5-.1v-1h-.1l-4.9-.2-9.9-.4 9.9-.1 5-.1v-1l-5-.2-9.9-.4 9.9-.1 5-.1v-1l-5-.2-9.8-.4 9.8-.1 5-.1v-1l-4.9-.2-9.9-.4 9.9-.1 4.9-.1v-.9l-4.9-.3-9.9-.4 9.9-.1 4.9-.1.1-.9h-.1l-4.9-.3-9.9-.4 9.9-.1 5-.1V37h-.1l-4.9-.3-9.9-.4 9.9-.1h5v-1l-5-.3-9.8-.4 9.8-.1h5v-1l-5-.3-9.8-.4 9.8-.1h5v-1l-4.9-.3-9.9-.4 9.9-.1h4.9l.1-1h-.1l-4.9-.2-9.9-.5 9.9-.1h5v-1h-.1l-4.9-.2-9.9-.6h14.9v-1h-.1l-4.9-.2-9.8-.6h14.8v-1l-5-.2-9.8-.6h14.8v-1l-5-.2-9.8-.6h14.8l.1-.9-16.9-.1-.4 31.2z"/></svg>