<svg xmlns="http://www.w3.org/2000/svg" viewBox="0 0 124 72.7"><path fill="#F90" d="M11.5 42.6c0 .7.5 1.3 1.1 1.1.4-.1.7-.7.7-1.2l-.4-18.2c0-1 .6-1.9 1.4-1.9h.1c.8 0 1.4.8 1.5 1.9l.4 18.2c0 .6.3 1.1.7 1.2.6.1 1-.5 1-1.2l-.4-18.3c0-1 .6-1.9 1.4-1.9h.1c.8 0 1.4.8 1.5 1.9l.4 18.3c0 .6.4 1.2.9 1.2s.9-.5.9-1.2l-.4-18.3c0-1 .6-1.9 1.4-1.9h.1c.8 0 1.4.8 1.5 1.9l.4 18.2c0 .6.3 1.1.7 1.2.6.1 1-.5 1-1.2L27 24c0-1 .6-1.9 1.4-1.9h.1c.8 0 1.4.8 1.5 1.9l.4 18.2c0 .6.3 1.1.7 1.2.6.1 1-.5 1-1.2l-.4-18.3c0-1 .6-1.9 1.4-1.9h.1c.8 0 1.4.8 1.5 1.9l.3 18.2c0 .6.3 1.1.7 1.2.6.1 1-.5 1-1.2l-.4-18.3c0-1 .6-1.9 1.4-1.9h.1c.8 0 1.4.8 1.5 1.9l.4 18.2c0 .6.3 1.1.7 1.2.6.1 1-.5 1-1.2L41 23.7c0-1 .6-1.9 1.4-1.9h.1c.8 0 1.4.8 1.5 1.9l.4 18.2c0 .6.3 1.1.7 1.2.6.1 1-.5 1-1.2l-.4-18.3c0-1 .6-1.9 1.4-1.9h.1c.8 0 1.4.8 1.5 1.9l.3 18.2c0 .6.3 1.1.7 1.2.6.1 1-.5 1-1.2l-.4-18.3c0-1 .6-1.9 1.4-1.9h.1c.8 0 1.4.8 1.5 1.9l.4 18.2c0 .6.3 1.1.7 1.2.6.1 1-.5 1-1.2L55 23.4c0-1 .6-1.9 1.4-1.9h.1c.8 0 1.4.8 1.5 1.9l.4 18.2c0 .6.3 1.1.7 1.2.6.1 1-.5 1-1.2l-.4-18.3c0-1 .6-1.9 1.4-1.9h.1c.8 0 1.4.8 1.5 1.9l.4 18.2c0 .6.3 1.1.7 1.2.6.1 1-.5 1-1.2l-.4-18.3c0-1.1.6-1.9 1.4-2 .8 0 1.5.8 1.5 1.9l.4 18.2c0 .6.3 1.1.7 1.2.6.1 1-.5 1-1.2L69 23c0-1.1.6-1.9 1.4-2 .8 0 1.5.8 1.5 1.9l.4 18.3c0 .6.4 1.2.9 1.2s.9-.5.9-1.2l-.4-18.3c0-1.1.6-1.9 1.4-2 .8 0 1.5.8 1.5 1.9L77 41c0 .6.3 1.1.7 1.2.6.1 1-.5 1-1.2l-.1-18c0-1.1.6-1.9 1.4-2 .8 0 1.5.8 1.5 1.9l.4 18.2c0 .6.3 1.1.7 1.2.6.1 1-.5 1-1.2l-.4-18.3c0-1.1.6-1.9 1.4-2 .8 0 1.5.8 1.5 1.9l.4 18.3c0 .6.4 1.2.9 1.2s.9-.5.9-1.2L88 22.8c0-1.1.6-1.9 1.4-2 .8 0 1.5.8 1.5 1.9l.4 18.2c0 .6.3 1.1.7 1.2.6.1 1-.5 1-1.2l-.4-18.3c0-1.1.6-1.9 1.4-2 .8 0 1.5.8 1.5 1.9l.5 18.4c0 .6.3 1.1.7 1.2.6.1 1-.5 1-1.2l-.4-18.3c0-1.1.6-1.9 1.4-2 .8 0 1.5.8 1.5 1.9l.4 18.2c0 .6.3 1.1.7 1.2.6.1 1-.5 1-1.2l-.4-18.3c0-1.1.6-1.9 1.4-2 .8 0 1.5.8 1.5 1.9l.4 18.2c0 .6.3 1.1.7 1.2.6.1 1-.5 1-1.2l-.4-18.3c0-1.1.6-1.9 1.4-2 .8 0 1.5.8 1.5 1.9l.4 18.2c0 .6.3 1.1.7 1.2.6.1 1-.5 1-1.2V23c0-1.4.8-2.6 1.9-2.7 1.1 0 2 1.1 2 2.6l.3 15.5c.1 6.6-3.8 12.1-8.8 12.2l-89 1.8c-5 .1-9.2-5.2-9.3-11.8l-.3-16.3c0-1 .6-1.9 1.4-1.9.8 0 1.4.8 1.5 1.9l.3 18.3z"/></svg>