<svg xmlns="http://www.w3.org/2000/svg" viewBox="0 0 1280 390" width="1280" height="390"><g fill="#F95D5D"><path d="M1205.6 264.2c-4.2-21-19.2-39.7-29.3-58.8-.6-1.2-1.3-2.4-1.9-3.6-6.7-.4-13.4.2-19.9 2-35.5 10.1-39.7 54.7-15.7 79.7l66.8-19.3zM1198.7 289.4c1.9-2 3.4-4.1 4.6-6.4l-49.6 11.4c15.3 7.5 33.1 7.2 45-5zM1206.2 272.2c-.1.2-.1.5 0 .7v-.7zM1209.5 263l18.7-5.4c1.2-.4 2.4-.7 3.7-1.1 2-.5 4-1 6-1.3-3.7-26.9-30.9-49.7-60-53.1 8 15.3 18.5 29.6 25.9 45.1 2.6 5.1 4.6 10.5 5.7 15.8z"/><path d="M1209.2 281.6c-1.6 4.9-4.6 9.4-9.4 13.3-15.3 12.2-35.7 10.4-51.8.7l-67.6 15.5c18.6 6.9 38.5 11.2 58.2 11.5 21.4.3 43.1-3 61.3-12.9 14-7.6 30.5-19.2 36.2-34.3l-1.2.3-25.7 5.9z"/><path d="M0 375.2v14.5h1280V7.7c-.9 26.4-38.7 324.3-1280 367.5zm1243.1-101.6c-1.2 4.7-3.2 9.3-6.2 13.5-9.4 13.3-23.3 24.1-38.8 31-36.1 16-78.9 13.6-117.3-.2-3.7-1.3-7.2-2.8-10.7-4.4l-89 20.4c-1.9.5-3.8-.1-4.3-1.2-.4-1.2.8-2.5 2.7-3l78.1-22.6c-9.8-5.6-19.2-11.9-29.3-17.8-19.8-11.5-41.8-17.5-61.5-5.2-15.7 9.8-32.1 26.1-34.9 44.5-2.3 15 5.8 29.2 20 37.5 23.2 13.4 65.3 15.8 70.6-14.5.1-.6 1-.3.9.2-4.1 27.3-40.2 30.5-64 20.8-27.1-11-38.6-36.6-25.1-60.1 7.9-13.9 20.3-26.8 35.3-34.3 15.7-7.9 33.5-6.3 50.1 1.2 16 7.3 29.9 17.8 45.6 25.6l69.2-20c-4-4.4-7.3-9.5-9.5-15-11-26.9-3.6-61.1 28.3-69.2 6.3-1.6 12.9-2.2 19.5-2-6.6-13.8-11.2-29.4-2-42.3 13.5-19 49.4-26.6 70.2-10.6 18 13.9 26.3 47.1-.4 54.5-18.3 5.1-35.8-6.8-28.7-24.8.5-1.3 3-.4 2.5.9-2.2 6.7-2.2 15 5.8 18.9 5.9 2.9 13 3.2 19 1.1 13.7-4.7 16.8-18.5 11.5-31-7.9-18.8-29.4-29.5-49.7-23.5-11.6 3.4-25.1 9.1-30.2 20.1-4 8.6-2.2 18.5 1.4 27.4 1.3 3.2 2.7 6.3 4.2 9.3 26.6 2.2 52.9 18.3 63.2 42 1.9 4.4 3.3 9 4.1 13.6 9.1-.8 15.8.9 17.2 4.6 1.6 4.8-5.8 10.7-17.8 14.6z"/><path d="M1251.9 264c.8-1 1.1-2 .8-2.8-.3-.9-1.2-1.5-2.6-1.9 2 .3 3.2.9 3.5 1.7-.8-2.1-4.8-2.7-9.5-2.4.3 3.6.3 7.2-.2 10.8 5.7-2 10.9-4.9 9.7-8.3.3.7-.3 1.7-1.7 2.9zM1233.3 260.1c-6.4 1.7-17.1 4.8-22.9 8.1.2 2.4.3 4.8.1 7.1 6.7.7 19.6-2.1 26.9-4 .1-.2.1-.5.2-.7.8-3.9 1.1-7.7.9-11.5-2 .3-3.7.7-5.2 1z"/></g></svg>