<svg xmlns="http://www.w3.org/2000/svg" viewBox="0 0 1280 390" width="1280" height="390"><g fill="#F90"><path d="M994.8 228.9c-4.1 1.5-8.3 3-12.6 4.5 2.2 10.2 5.8 20.2 10.3 30.2 2.4-11.8 3.1-23.3 2.3-34.7zM1030.4 215.2c-2.7 1.1-5.4 2.2-8.2 3.3 2.7 19.4 7.6 38.2 15.1 56.8 1.5-17.2-1.7-41.3-6.9-60.1z"/><path d="M1082.6 192.3c4.1 6.8 9.6 12.9 16.3 18.6 19.2 16.3 30.8 35.7 32.5 58.9.6 8-.5 16.2-.8 24.2h-1.7v-5.9c0-30-9.5-56.7-35.9-78.3-5.5-4.5-10-10-14.4-15.5-3.9 1.8-7.9 3.7-12 5.5-.3 14.9-.6 29.4-.5 43.9.2 21.3 4.1 42.1 15.6 61.3 2.9 4.9 6.6 9.6 9.9 14.3-3.6-2.4-6.7-5.1-9.5-8-14.4-15.3-22.4-33.2-26.9-52-4-16.6-6.5-33.5-9.9-50.2-.9.4-1.9.8-2.9 1.2 3.6 25.3 4.1 50.9 2 76.6-.3 3.1.2 6.4 1.6 9.2 4.7 9.2 10 18.1 15.1 27.1.7 1.2 1.4 2.4 2 3.6-.3.2-.7.3-1 .5-6.3-8-12.7-15.9-19.5-24.6-1.4 7.5-2.6 14.3-3.8 21.1-1-8.4-.7-16.7-.9-25 0-2.5-.7-5.1-2-7.3-12.7-21.9-21.4-44.7-25.6-68.3-3 1.1-6 2.3-9 3.4.3 13.9-1.2 27.8-4.3 41.9-.6 2.6 0 5.7 1 8.3 2.1 5.6 5 11 7.1 16.7 3.5 9.3 2 18-6.5 25.5-2.7 2.3-5.2 4.8-7.4 7.4-5.8 6.9-6 14.2-2 21.7.6 1.1 1.3 2.2 2.4 3.9-9.5-6.5-11.5-16.3-5.4-24.1 1.9-2.4 4.2-4.7 6.4-7 8.4-9.2 7.6-22.4-2.1-31-1 2.3-2 4.4-2.8 6.5-2 5.5-2.2 12.3-6.3 16.3-5.5 5.3-7.8 11.6-12.1 17.2-4.1 5.2-7.4 11-9.8 16.9-5.2 13 .5 22.7 15.3 28l-3.2.6c-19.6-4.4-23.7-20-17.5-32.1 2.7-5.2 6.1-10.1 9.4-15.1 3.6-5.4 7.6-10.5 11-15.9.8-1.2.7-3.7-.3-4.7-9.7-10.1-16-21.6-19.6-34.1-2.4-8.3-4.2-16.7-6.3-25.4-25.3 34.5-42.6 69.5-24.8 109.5-10.4-11.9-14.5-25.4-15.9-39.6-2-19.9 2.7-39.4 8-58.8.4-1.5.8-2.9 1.2-4.4-7.7 2.3-15.6 4.6-23.6 6.9-5.6 15.5-8.7 31.7-9.4 48.4-.7 16.3-2.2 33 10.7 48.2-39.4-17.7-56.6-45.7-60.6-80.8-1.7 11.3-4.5 22-10.7 32.1-.4.7-.1 1.8.1 2.7 8.4 29.8 25.8 54.4 59.2 69.4.9.4 2 .5 3 .8-1.3 1-2 1.1-2.7 1-2.6-.2-5.1-.2-7.6-.6-31.4-4-54.6-18.4-72-39.5-13.3-16.1-20.4-34.1-24.7-52.9-4.4 1-8.8 1.9-13.3 2.9-2.4 12.9-2 25.9.7 39.1-4.8-12.1-7.9-24.5-9.9-37.1-2.3.5-4.6 1-6.9 1.4-.2 8 .4 16.1 1.6 24 1.2 8.2 3.8 16.3 6 25.2-8.2-15.5-14.7-31-19.2-46.8-179.7 36.4-418.8 64.8-737 76.1V390h1280V0c-1 14-11.5 103.6-197.9 192.3z"/><path d="M829.6 278.4c-3.8.9-7.7 1.9-11.6 2.8.5 8.4 1.6 16.8 3.5 25.4 4.4-8.3 7-18.2 8.1-28.2zM986.2 288.7c1.3-2.7.8-4.7-1-7.1-9.7-13-18.4-26.4-24.4-40.8-3.1 1-6.2 2.1-9.3 3.1-.9 22.8 10.7 43.2 25.5 63 3.6-6.1 6.3-12.2 9.2-18.2z"/></g><path fill-rule="evenodd" clip-rule="evenodd" fill="#1E1E1D" d="M1253.3 298.9c-4.3-5.1-12.3-7.7-20.5-6.8-5.7.6-10.7 2.6-14.6 5.3-4.4 3.1-10.5 3.5-14.7 1.1-14.5-8.1-32.8-17.8-46.9-23.6 8.2-12 17.4-28.4 24.4-41.7 2.1-4 7.4-6.7 12.8-6.3 4.7.3 9.8-.5 14.8-2.8 7.6-3.4 12.8-9.7 13.3-16.2.6-6.3-2.7-11.3-7.8-14.7 2-3 4.9-9.1 3-17.3-.4-1.6-.9-3.3-1.7-5-.5-1.2-2.3-1.7-3.9-1.2s-2.5 1.9-1.9 3.1c3.9 8.5 1.4 15-.5 18-6.3-2.2-14.2-2.4-21.8.7-7.8 3.2-13.5 9.4-14.3 16-.6 4.6.8 8.6 3.6 11.7 2.7 3.1 2.9 7.2-.2 10.4-10 10.8-23.6 24.5-38.7 39.5-31.9-6.4-114.7-15.3-153.1-17.4-1.9-.1-2.7 2.1-.9 2.5 26.2 5.5 84.9 18 138.4 30.3-38.3 37.5-81.5 78.2-100.6 96.2-1.3 1.2.7 2.7 2.2 1.6 32-21.5 99.6-72.6 120.7-92.7 22.2 5.2 42.5 10.3 57.7 14.5 4.4 1.2 6.7 4.7 6.4 8.6-.3 3.6.8 7.3 3.5 10.6 4.5 5.3 12.8 8 21.4 6.9 18.9-2.6 29.7-19.6 19.9-31.3zm-59.1-104.6c10-2 19.7 2.5 21.5 10 1.8 7.6-4.9 15.3-14.9 17.4-10 2-19.7-2.5-21.5-10-1.8-7.6 4.9-15.4 14.9-17.4zm43.8 130.1c-9.6 3.3-19.8.1-22.7-7.2-2.9-7.2 2.5-15.8 12.1-19.1s19.8-.1 22.7 7.2c3 7.2-2.5 15.8-12.1 19.1z"/></svg>