<svg id="Слой_1" xmlns="http://www.w3.org/2000/svg" viewBox="0 0 1285.5 418.4" width="1285" height="418"><style>.st0{fill:#F90}.st1{fill-rule:evenodd;clip-rule:evenodd;fill:#060606}</style><g id="XMLID_2_"><g id="XMLID_22_"><path id="XMLID_32_" class="st0" d="M344.1 293.8c-4.4-1.4-8.7-2.9-13-4.4-4.9 10.5-5.4 23-3.9 36.4 9-9.1 14.8-19.7 16.9-32z"/><path id="XMLID_27_" class="st0" d="M297.6 345.5c5.5-2 10.2-4.5 15-6.9 2.1-1 2.4-2.6 1.4-5.1-6.9-18.2-11.7-35.9-9.4-51.8-21.1 14.2-16.8 37.9-7 63.8z"/><path id="XMLID_26_" class="st0" d="M366.4 356.1c8.8-12.4 14.4-35 13.9-51.1-2.1-.6-4.1-1.2-6.2-1.9-6.2 16.4-8.8 34-7.7 53z"/><path id="XMLID_25_" class="st0" d="M436.9 320.7c.7 8.1 4.6 16.8 10.5 26 13 20.2 17.7 38.5 11.4 54-2.2 5.4-5.9 10-9 15-.5-.3-1.1-.6-1.6-.9.7-1.2 1.3-2.5 2-3.7 10.1-19.1 9.9-40.9-8.2-68.1-5.3-7.9-8.1-15.9-11.4-23.8-2.4-.6-4.9-1.3-7.3-1.9-6.5 11.4-12.9 22.4-18.7 33.6-7 13.7-10.2 28.9-5.7 47 1.2 4.6 3.1 9.4 4.7 14.1-2.6-3.4-4.8-6.7-6.4-10-8.7-17.1-10.4-32.5-8.4-46.8 1.8-12.9 5.2-25.1 7.5-37.7.4-2.4.8-4.8 1.2-7.3-.8-.2-1.6-.5-2.4-.7-4.7 21.1-13.6 40.2-25.9 57.7-1.3 1.8-2 4.2-1.5 6.7 1.5 8.2 3.6 16.6 5.4 25 .2 1.1.5 2.2.7 3.4-.4-.1-.8-.2-1.1-.2-3.4-8.3-6.8-16.6-10.5-25.6-3.8 4.1-7.3 7.8-10.8 11.5 1.9-5.8 4.9-11 7.6-16.4.8-1.6 1-3.6.5-5.7-5.8-24.5-5.6-46.8 1.3-66.6-2.9-.9-5.7-1.8-8.6-2.7-4.3 13.1-11.9 24.7-22.5 34.7-1.5 1.4-1.9 3.6-1.8 5.8.1 4.6 1.1 9.6 1.2 14.2.2 7.7-4.1 12.5-14.9 12.9-3.4.1-6.6.4-9.7 1-7.9 1.5-10.6 6-9.2 12.8.2 1 .5 2.1 1 3.7-6.9-8.9-5.6-16.2 2.9-18.1 2.6-.6 5.6-.8 8.5-1.2 11.2-1.6 14.9-10.3 8.5-20.8-1.7.9-3.4 1.8-4.9 2.7-3.8 2.5-6.2 6.7-11.6 7.1-7.1.5-11.4 3.4-17.4 4.7-5.7 1.3-10.9 3.2-15.1 5.8-9.4 5.6-7.2 14.7 5.3 25.6l-3.3-1.3c-17.4-12.8-16.1-24.8-6.1-29.3 4.3-1.9 9.3-3.3 14.1-4.8 5.3-1.6 10.9-2.8 16-4.5 1.2-.4 1.9-2 1.3-3.1-5.9-11.4-8.1-21.9-7.4-31.7.4-6.5 1.6-12.8 2.5-19.3-36 9-64.5 22.5-60.8 57-6-12.9-5.4-23.5-2-33.3 4.8-13.7 15.9-23.7 27.5-33.3 6.3-5.2 12.4-10.6 18.5-15.9-5.2-2.1-10.4-4.3-15.4-6.4-23 8.2-40.1 20.9-50.9 38.5-6.2 10-13.2 19.8-6 36.1-32-31.4-39.2-58-31.2-82.4-5.4 6.3-11.8 11.7-21.1 15-.7.2-.7 1.1-.8 1.7-1.9 23.3 6.5 47.8 33.6 74.4.7.7 1.7 1.4 2.6 2-1.6 0-2.3-.4-3-.7-2.4-1.4-4.9-2.8-7.2-4.3-28.9-18.6-46.4-39.6-56.1-61.9-9.4-21.7-8.1-40.3-3.4-57.8.5-1.9 1.1-3.7 1.6-5.6-18.1 7.8-27.3 20.8-30.4 37.3-1-17 3.1-31.9 8.7-46.2-4.7 4.4-9.2 8.8-12.3 14-3.1 5.2-5.4 11-7 17-1.6 5.9-1.8 12.3-2.7 19.1-3.4-17.6-4.1-33.9-1.6-48.9 5.5-32.8 4.3-51.3 6.4-62C18.5 88.5 4 34.1.7.3.4.2.2.1 0 0v418.4h1285.5v-17.1c-388.1.7-659.2-32.4-848.6-80.6z"/><path id="XMLID_24_" class="st0" d="M177.3 221.7c-.6 6.2-1.8 12.1-2.6 18.2 2.9-4.9 6.2-9.6 9.5-14.3-2.4-1.3-4.7-2.6-6.9-3.9z"/><path id="XMLID_23_" class="st0" d="M147.8 265.9c18.9-8 29.3-29.6 25.2-46.6-.6-.4-1.3-.7-1.9-1.1-10.8 14.2-20.1 29-23.3 47.7z"/></g><g id="Shape_7_5_"><g id="XMLID_53_"><path id="XMLID_54_" class="st1" d="M281.6 347.9c-25.2-5.8-81.9-18.9-132.9-31.7 39-37.8 82.3-78.3 101.7-96.5 1.3-1.2-.4-2.7-2-1.7-31.3 21.4-96.8 71.1-120.6 92.8-20.2-5.2-38.6-10.2-52.4-14.4-4.2-1.3-6.1-4.9-5.3-8.9.7-4.1 0-8.3-2.8-11.9-4-5.2-11.9-7.7-20.1-6.5-8 1.2-14.5 5.3-18.8 10.5-3-1.7-8.4-5.9-9.3-15.2-.1-1.3-1.6-2.1-3.2-1.7-1.6.4-2.8 1.7-2.7 3 .2 1.9.5 3.6 1 5.2 2.4 8 8 11.8 11.1 13.4-2.7 5.5-2.9 11.5.7 16.6 3.7 5.3 11.2 8.1 19.3 7.2 5.3-.6 10.1-2.5 13.9-5.2 4.4-3 10.2-3.4 14-1.1 12.6 7.9 28.5 17.4 41.4 23.5-9 12.2-19.6 29.8-27.8 44.2-2.4 4.2-7.7 6.9-12.9 6.5-4.7-.4-9.8.4-15 2.8-7.4 3.4-12.8 9.7-13.9 16.3-2.5 15.1 15.1 24.2 32.4 16.9 7.8-3.3 13.5-9.9 14.7-16.8.7-4.2-.2-7.9-2.3-10.9-2.2-3.2-2-7.3 1.2-10.7 10.8-11.4 25.4-26 41.5-41.8 27.9 6.6 110.4 16.2 148.1 18.5 1.7.3 2.7-2 1-2.4zM50.9 302.1c-9.5 3.4-19 .1-21.2-7.4-2.2-7.4 3.6-16.2 13.1-19.6 9.5-3.4 19-.1 21.2 7.4 2.2 7.4-3.7 16.2-13.1 19.6zm19.6 107.3c-9.8 2.1-18.6-2.5-19.8-10.3-1.1-7.7 5.9-15.7 15.6-17.7s18.6 2.5 19.8 10.3c1.2 7.7-5.8 15.6-15.6 17.7z"/></g></g></g></svg>