<?xml version="1.0" encoding="utf-8"?>
<!-- Generator: Adobe Illustrator 19.0.0, SVG Export Plug-In . SVG Version: 6.00 Build 0)  -->
<svg version="1.1" id="Слой_1" xmlns="http://www.w3.org/2000/svg" xmlns:xlink="http://www.w3.org/1999/xlink" x="0px" y="0px"
	 viewBox="-414 214 73 94.2" style="enable-background:new -414 214 73 94.2;" xml:space="preserve">
<style type="text/css">
	.st0{fill:#1F0F0A;}
</style>
<path id="XMLID_80_" class="st0" d="M-387.5,218.5c0,0,6-5.8,12-3.4c0,0,9.6-4.9,13.2,6.2c0,0,7.6-1.6,7.8,8.1c0,0,5.5,0.1,3,11.6
	c0,0,10.5,12.2,6.1,17.6c0,0-4.3,5.6,0.3,12.6c0,0,6.9,7.4,1.4,12.7c0,0-3.7,3.3-0.2,7.9c0,0,3.8,3.5-2.8,8.6c0,0,0.4-7.3-3.7-8
	c0,0-3.3,3.7,0.2,8c0,0,3.7,6.2-9.7,7.8c0,0,9.9-3.9,3.5-9.1c0,0-4.1-3.3-3.6-6.5c0,0-5.8,7,2.8,9.2c0,0-15.6,2.7-10.1-9.3
	c0,0,3.7-6.4,0.3-10.1c0,0-4.5-4.8-0.4-12.1c0,0,9.1-12.7,4.8-28.4c0,0-1.3,5-0.8,9.3c0,0-7.5-13.3-10.8-15c0,0,3.3,11.1,6.5,13.4
	c0,0-8.2-7.1-10.6-17.3c0,0-3.4,7.8-5.2,12.9c0,0-0.3-5.7,1.1-8.5c0,0-7.4,13.1-11,14.6c0,0-0.4,10,5.1,16.2c0,0,9,9.7,0.2,17.4
	c0,0-8.4,8.7,4,12.6c0,0-6.9,1.7-11.4-4.1c0,0,6.3,7.9,0,14.6c0,0,0.4-12.3-8.1-14.3c0,0-0.3,8.7,6,9.2c0,0-11.1,2.7-10.5-5.6
	c0,0-2.4,3.5,0.6,6.3c0,0-9.2-5-2.4-12.9c0,0,4.9-4.2-0.5-9.7c0,0-6.8-6.7-0.1-12.7c0,0,5-5,2.9-10.2c0,0-2.5-3.1,1-5.1
	c0,0-1.9-8.4,5.1-15.1c0,0-6.1-2.8,2.7-13.2C-398.7,224.6-390.6,214.4-387.5,218.5z"/>
</svg>
