<?xml version="1.0" encoding="utf-8"?>
<!-- Generator: Adobe Illustrator 19.0.0, SVG Export Plug-In . SVG Version: 6.00 Build 0)  -->
<svg version="1.1" id="Слой_1" xmlns="http://www.w3.org/2000/svg" xmlns:xlink="http://www.w3.org/1999/xlink" x="0px" y="0px"
	 viewBox="-418.8 220 78.3 121.9" style="enable-background:new -418.8 220 78.3 121.9;" xml:space="preserve">
<style type="text/css">
	.st0{fill:#1F0F0A;}
</style>
<path class="st0" d="M-417.6,334.9c0,0,9.1-23.3,12.5-61c0,0-2-38.1,12.5-47.6c0,0,16.2-12.1,23.7,0c0,0,11,1.6,12.5,19.8
	c0,0-0.9,22.4,3,44.3c0,0,5.5,32.2,11.9,50.7c0,0-3.9-8.4-9.8-29.2c0,0-0.1,16.6,2.8,24.1c0,0,3.1,3.3-2.7,5c0,0-10.6,2-8.9-1.1
	c0,0-3.8-0.8-4.9,0.5c-1.1,1.3-0.7-23.8-2.8-36.4c0,0-1.9,16.6-5.9,31.4c0,0,4.8-33.4,4.1-47.6c0,0,0.5-10.3,3.4-17
	c0,0,5.6-14.8,1.7-21.7l-17.4,0.5l-0.6-8.9l-0.7,8.8l-2.1,0.1l-1.1-4.6l-0.7,4.5l-7.4,0.1c0,0-1.7,15.1,2.6,22.5
	c0,0,4.6,9.3,3.8,34.9c0,0-1.2-17.7-2.5-22.3c0,0-1.9,28.2,4.3,50.2c0,0-4.6-11.4-6.9-29.9l-1.1,35.4l-5.5-0.4v1.8
	c0,0-8.9,1-12.7-2.4c0,0,3.7-15.6,3.5-28.6C-409.3,311-414.4,330.3-417.6,334.9z"/>
</svg>
