<?xml version="1.0" encoding="utf-8"?>
<!-- Generator: Adobe Illustrator 19.0.0, SVG Export Plug-In . SVG Version: 6.00 Build 0)  -->
<svg version="1.1" id="Слой_1" xmlns="http://www.w3.org/2000/svg" xmlns:xlink="http://www.w3.org/1999/xlink" x="0px" y="0px"
	 viewBox="-409.7 214.7 60.5 70.8" style="enable-background:new -409.7 214.7 60.5 70.8;" xml:space="preserve">
<style type="text/css">
	.st0{fill:#1F0F0A;}
</style>
<path id="XMLID_80_" class="st0" d="M-380.3,217.2c0,0,8.5-2.9,16.6,4.2c0,0,15.5,12.2,11.8,42.2c0,0-1.3,9-6.3,14.1l-0.2-1.8
	c0,0-0.8,2.3-4.2,4.6l-0.1-1.7c0,0-3.3,3.8-8,5.4c0,0,2.9-2.2,4.3-5.2c0,0-3.3,3.4-5.9,3.7c0,0,8.9-5.1,10.3-27.8c0,0,0.4-3.7-5.1-3
	c0,0-14.5,1.5-24.7,0.3c0,0-2.9-0.7-3.9,2.5c0,0-3.5,14.8,5.8,28.4c0,0-4.1-1.9-6.5-6.8l0.2,3.2c0,0-5-4.4-6-8.1v2.4
	c0,0-7.1-7-6.3-20.3c0,0,2.6-21,11.5-30.4C-397,222.7-387.2,211.9-380.3,217.2z"/>
</svg>
