<?xml version="1.0" encoding="utf-8"?>
<!-- Generator: Adobe Illustrator 19.0.0, SVG Export Plug-In . SVG Version: 6.00 Build 0)  -->
<svg version="1.1" id="Слой_1" xmlns="http://www.w3.org/2000/svg" xmlns:xlink="http://www.w3.org/1999/xlink" x="0px" y="0px"
	 viewBox="0 0 55.3 48" style="enable-background:new 0 0 55.3 48;" xml:space="preserve">
<style type="text/css">
	.st0{fill:#1F0F0A;}
</style>
<path id="XMLID_80_" class="st0" d="M7.9,45.7c0,0-5.8-13.2-5.3-24c0,0-0.9,0.7-1.3,2.1c0,0-1.2-6.3,5.1-11.8c0,0,0-5.8,8.4-6.8
	c0,0,4-5.2,12.7-2.5c0,0,6.9-4.6,12.8,2.3c0,0,6.6-0.1,9.7,7.6c0,0,2.1,6.6,5.4,7l-2.2,1.8c0,0,1.2,15.1-5.3,23.4
	c0,0,2.9-14.9-8.5-19.2c0,0,2.5,4.7,4.3,8.4c0,0-6.2-7.6-10.3-8.4c0,0-7.8,0.7-12.3-3.6c0,0,4.6,6.2,6.6,8.1c0,0-9.2-4.4-11.6-8.1
	c0,0-6.5-4.8-6.6,4.4L7.9,45.7z"/>
</svg>
