<svg xmlns="http://www.w3.org/2000/svg" viewBox="0 0 124 72.7"><path fill="#F90" d="M60.9 31.3v-.9c-.1-1.5-.1-3.3-.1-4.7v-.2c0-1.8.1-3.8 1.6-5.2.6-.6 1.4-1 2.3-1.5 1.8-1 3.7-2.1 4.7-5 .2-.7.9-3-.5-5-.8-1.1-3.6-3.5-7.2-1.4-2.8 1.6-2.7 4.3-2.6 5.4l-.9.1h-.9c0-1.3-.2-5.1 3.5-7.2 4.4-2.5 8.1-.2 9.6 2 1.3 1.8 1.6 4.3.7 6.7-1.3 3.6-3.6 4.9-5.5 6-.8.4-1.4.8-1.9 1.3-.9.9-1 2.3-1 3.9v.2c0 1.4 0 3.1.1 4.6v.9h-1.9z"/><path fill="#F95D5D" d="M115.4 60.5c-4.5-3.5-19-7.7-28.5-13.1S73.1 34 71.1 31.9s-4.7-3.8-7.3-4c-.8 0-1.3-.1-1.6-.1h-.4c-.3 0-.8 0-1.6.1-2.6.1-5.4 1.8-7.3 4-2 2.1-6.2 10-15.8 15.5S13 57 8.6 60.5c-4.5 3.5-3.2 7.3-3.2 7.3h16.2v-2.4s-2.4.1-6 0-4.2-.7-3.3-1.4c2.8-2.1 35.1-18.6 40.8-21.1 4.4-2 7.5-2.2 8.7-2.2h.6c1.2 0 4.2.2 8.7 2.2 5.7 2.5 38.1 19 40.8 21.1.9.7.3 1.3-3.3 1.4-3.6.1-6 0-6 0v2.4h16.2c-.2.1 1.1-3.7-3.4-7.3z"/><path fill="#F95D5D" d="M21.6 65.6h80.9V68H21.6z"/></svg>