<svg id="Слой_1" xmlns="http://www.w3.org/2000/svg" viewBox="0 0 1285.5 418.4" width="1285" height="418"><style>.st0{fill:#F90}.st1{fill:#120606}</style><g id="XMLID_9_"><path id="XMLID_13_" class="st0" d="M1285.5 0v418.4c-.2-.1-.4-.2-.7-.3-10.3-103.7-126-403.2-1284.8-401V0h1285.5z"/><path id="XMLID_86_" class="st1" d="M1091.8 146.8l.1.3c.4.8 1.4 1.2 2.3.8l74.2-33.3c7.7-3.5 13.3-10.5 14.7-18.6l1.9-10.9c1.4-8.1 8.1-14.5 16.4-15.7l25.8-3.7c2.7-.2 5.5-.9 8.2-2.1 12.2-5.5 17.9-19.6 12.4-31.2-5-10.5-17.7-15.2-29.1-10.8-3.1 1.2-5.9 3-8.2 5.2l-20.1 16.9c-6.5 5.4-15.7 6.1-22.4 1.7l-9.1-6c-6.8-4.4-15.6-5-23.3-1.6l-74.2 33.3c-.9.4-1.3 1.4-.9 2.3.4.8 1.4 1.2 2.3.8l58-26c.8-.4 1.8 0 2.1.8.3.8-.2 1.7-1 2L1064 77c-.9.4-1.3 1.4-.9 2.3l.1.2c.4.8 1.4 1.2 2.3.8l58-26c.8-.4 1.8 0 2.1.8.3.8-.2 1.7-1 2l-57.9 26c-.9.4-1.3 1.4-.9 2.3l.1.2c.4.8 1.4 1.2 2.3.8l58-26c.8-.4 1.8 0 2.1.8.3.8-.2 1.7-1 2l-57.9 26c-.9.4-1.3 1.4-.9 2.3l.1.2c.4.8 1.4 1.2 2.3.8l58-26c.8-.4 1.8 0 2.1.8.3.8-.2 1.7-1 2l-57.9 26c-.9.4-1.3 1.4-.9 2.3l.1.2c.4.8 1.4 1.2 2.3.8l58-26c.8-.4 1.8 0 2.1.8.3.8-.2 1.7-1 2l-57.9 26c-.9.4-1.3 1.4-.9 2.3l.1.2c.4.8 1.4 1.2 2.3.8l58-26c.8-.4 1.8 0 2.1.8.3.8-.2 1.7-1 2l-57.9 26c-.9.4-1.3 1.4-.9 2.3l.1.2c.4.8 1.4 1.2 2.3.8l58-26c.8-.4 1.8 0 2.1.8.3.8-.2 1.7-1 2l-57.9 26c-.9.4-1.3 1.4-.9 2.3l.1.2c.4.8 1.4 1.2 2.3.8l58-26c.8-.4 1.8 0 2.1.8.3.8-.2 1.7-1 2l-57.9 26c-.9.4-1.3 1.4-.9 2.3l.1.2c.4.8 1.4 1.2 2.3.8l58-26c.8-.4 1.8 0 2.1.8.3.8-.2 1.7-1 2l-57.9 26c-.9.4-1.3 1.4-.9 2.3l.1.2c.4.8 1.4 1.2 2.3.8l58-26c.8-.4 1.7 0 2.1.7.3.8-.1 1.7-.9 2.1l-58 26c-.9.4-1.3 1.4-.9 2.3l.1.2c.4.8 1.4 1.2 2.3.8l58-26c.8-.4 1.8 0 2.1.8.3.8-.2 1.7-1 2l-57.9 26c-.9.4-1.3 1.4-.9 2.3l.1.2c.4.8 1.4 1.2 2.3.8l58-26c.8-.4 1.8 0 2.1.8.3.8-.2 1.7-1 2l-57.9 26c-1.9.8-2.3 1.8-1.9 2.7zm137.3-97.7c-3.6 1.6-7.7.1-9.2-3.3-1.5-3.5.2-7.6 3.8-9.2 3.6-1.6 7.7-.1 9.2 3.3 1.5 3.5-.2 7.6-3.8 9.2z"/></g></svg>