<svg xmlns="http://www.w3.org/2000/svg" viewBox="0 0 124 72.7"><path fill="#F95D5D" d="M103.4 61.9l-.5-31h1.8v8.3c0 1.6 1.3 2.8 2.8 2.8 1.6 0 2.8-1.3 2.8-2.8v-21c0-1.6-1.3-2.8-2.8-2.8-1.6 0-2.8 1.3-2.8 2.8v6.4l-3 .1s-.9-4.5-6-6.9c-4.3-2-9.2-1.9-9.2-1.9V15h1.4v-.7H87V9.2h.9v-.6h-2.4s.1-1.4-.5-1.4-.5 1.4-.5 1.4h-2.3v.7h1v5.1h-1v.7h1.3v.8s-27.2 2.3-32.1 2.7-13.4 2.3-15.9 1.2c-2.5-1.1-3.8-4.2-4.3-6.4-.5-2-2.9-1.9-4.2-1.8-1.4.1-1.9 0-1.9 0v-1H25c.4 0 .7-.3.7-.7.1-.6-.3-.9-.7-.9h-1.7c-.4 0-.7.3-.7.7 0 .4.3.7.7.7h.1v1H20s-2.7-.2-2.9 2.9-.4 16.6-.4 20.5c0 3.8 0 11.2 1.2 12.7 1.1 1.3 2.3 1.2 2.3 1.2s-.6 2.9 1.1 4.7c.5 1.5.9 6.9 1 8.5h-21v3.4l60.8.2 60.4-.1.1-3.5h-19.2zm-79.8-8.6s1.1-.9 1.3-2.6c.1-1.2-.3-2.4-.3-2.4s4-.2 6.4-5.6c2.3-5.5 1.9-8.3 7.1-8.8 5.2-.5 28.8 0 28.8 0s18.5-.3 20.8 1.2c2.3 1.5 1.7 3.2-2.2 3.4-3.9.2-8-.5-9.3.5-1.3 1-4.2 17.2-4.9 19.9-.2 1-.5 2-.7 2.9h-48l1-8.5z"/><ellipse fill="#F90" cx="89" cy="49.6" rx="7.7" ry="7.8"/></svg>