<svg xmlns="http://www.w3.org/2000/svg" viewBox="0 0 92.5 91.8" preserveAspectRatio="xMinYMax " width="70" heigth="70"><g stroke="transparent" stroke-miterlimit="10"><circle cx="46.1" cy="46.2" r="42.3"/><g fill="#FF9900"><path d="M45.8 88.9c-23.7 0-43-19.3-43-43s19.3-43 43-43 43 19.3 43 43-19.3 43-43 43zm0-84c-22.6 0-41 18.4-41 41s18.4 41 41 41 41-18.4 41-41-18.4-41-41-41z"/><path d="M45.8 9.9c-19.9 0-36 16.1-36 36s16.1 36 36 36 36-16.1 36-36-16.1-36-36-36zM27.5 32.3c.6-.8 1.5-1.1 2.6-1.1h32.4c1 0 1.8.3 2.5 1s1 1.5 1 2.5c0 1.2-.4 2.3-1.1 3.3-.7 1.1-1.6 2-2.7 2.7-5.5 3.8-9 6.2-10.3 7.2-.1.1-.5.3-.9.7-.5.3-.9.6-1.2.8-.3.2-.7.5-1.1.7-.4.3-.9.5-1.3.6-.4.1-.8.2-1.1.2-.3 0-.7-.1-1.1-.2-.4-.1-.8-.3-1.3-.6-.4-.3-.8-.5-1.1-.7-.3-.2-.7-.5-1.2-.8-.5-.3-.8-.6-.9-.7-1.3-.9-3.3-2.3-5.8-4-2.5-1.7-4-2.8-4.5-3.1-.9-.6-1.8-1.5-2.6-2.5-.8-1.1-1.2-2.1-1.2-3 0-1.3.3-2.3.9-3zM66 58.6c0 1-.3 1.8-1 2.5s-1.5 1-2.5 1H30.1c-1 0-1.8-.3-2.5-1s-1-1.5-1-2.5V41.1c.6.7 1.4 1.4 2.2 1.9 5.3 3.6 9 6.1 10.9 7.6.8.6 1.5 1.1 2 1.4.5.3 1.2.7 2.1 1.1.9.4 1.7.5 2.4.5s1.6-.2 2.4-.5c.9-.4 1.6-.7 2.1-1.1.5-.3 1.2-.8 2-1.4 2.5-1.8 6.1-4.3 11-7.6.8-.6 1.6-1.2 2.2-1.9v17.5z"/></g></g></svg>