<svg xmlns="http://www.w3.org/2000/svg" viewBox="0 0 124 72.7"><g fill="#F95D5D"><path d="M24.7 40c-.6.3-.9.7-.9 1 0 .3.3.7.9 1-.4-.3-.6-.7-.6-1 0-.3.2-.7.6-1z"/><path d="M30.2 37.1c-5.1 0-9 1.7-9 3.9s3.9 3.9 9 3.9h1.3L120 42c.7 0 1.2-.4 1.2-.9s-.5-.9-1.2-.9l-88.4-3c-.5-.1-1-.1-1.4-.1zM23.7 41c0-2.1 4-2.4 6.5-2.4 3.4 0 10.2.3 10.2 2.4s-6.9 2.4-10.2 2.4c-2.5 0-6.5-.8-6.5-2.4z"/></g><path fill="#F90" d="M85.6 6.5c-.5-.8-1.8-.1-1.3.7 5.6 9.5-.8 17.7-9.5 21.2-.7-6.5-3.1-13.4-8.9-15.7-4.5-1.8-9.7-.6-12.6 3.4-3.2 4.5-1.9 10.4 2.6 13.2 4.8 3 11.5 2.9 17.2 1.3.8 10.3-2.6 20.5-10.8 27.2-11.3 9.5-30.7 9.2-41.6-.6-.1-.1-.2-.2-.4-.3 5.8-4.5 11-10.1 15-16 5.2-7.6 8.5-18.1.3-24.9-4.3-3.6-10.5-5.6-16.1-4.2-5.7 1.4-8.8 7-10.1 12.3-2.7 11.3.6 24.6 8.8 33.2-2 1.5-4 2.8-6.2 4-.4.2-.1.8.3.6 2.2-1.2 4.4-2.5 6.4-4 .4.4.7.7 1.1 1 9.7 8.7 25.1 9.4 36.6 4.5 10.9-4.6 17.7-15.4 18.4-27 .1-1.9.1-4.1 0-6.4 1.3-.5 2.5-1 3.7-1.6 8.4-4.4 12.3-13.6 7.1-21.9zM11.1 25.3c1-5.7 4.3-11 10.3-12.2 5.3-1.1 11.7 2.1 15.2 6.1 6.2 7.1.2 17.6-4.4 23.8-3.5 4.8-7.7 9.4-12.5 13.2-7.9-7.9-10.5-20.1-8.6-30.9zm45.1 2.4c-3.8-2.4-3.6-7.2-1.5-10.7 2-3.2 6.4-3.9 9.8-3 5 1.4 7.1 7.3 8 11.8.2 1.1.4 2.1.5 3.2-5.7 1.9-12.1 1.7-16.8-1.3z"/></svg>