<svg id="Слой_1" xmlns="http://www.w3.org/2000/svg" viewBox="-444 246 70 70"><style>.st0{stroke:#FFF;stroke-miterlimit:10}.st1{fill:#FFF}</style><circle class="st0" cx="-409.1" cy="281.5" r="32"/><path class="st1" d="M-409.1 314c-17.9 0-32.5-14.6-32.5-32.5S-427 249-409.1 249s32.5 14.6 32.5 32.5-14.6 32.5-32.5 32.5zm0-63.6c-17.1 0-31 13.9-31 31s13.9 31 31 31 31-13.9 31-31c0-17-13.9-31-31-31z"/><path class="st1" d="M-409.1 254.2c-15.1 0-27.2 12.2-27.2 27.2s12.2 27.2 27.2 27.2c15.1 0 27.2-12.2 27.2-27.2 0-14.9-12.2-27.2-27.2-27.2zm15.8 35.3c-.2 3.1-2.6 4.7-5.4 5.5-.7.2-1.3.2-1.9.2-1.1 0-2.1-.2-3.1-.5-6.8-2-11.9-6.2-16-11.8-1.5-2.2-3-4.3-3.5-6.9-.5-3.2.4-5.8 2.7-8 .8-.7 3-1 3.9-.5.3.2.5.5.7.8.8 2 1.7 4.1 2.5 6.1.2.4.1.8-.1 1.2-.5.9-1.2 1.7-1.8 2.5-.5.5-.5 1-.2 1.7 2.4 4 5.7 6.9 10.1 8.6.7.3 1.2.2 1.6-.4.8-.9 1.5-1.8 2.2-2.7.5-.6 1-.7 1.7-.5 1.5.6 2.8 1.3 4.3 2 .3.2.6.3.9.5 1.6.6 1.6.6 1.4 2.2z"/></svg>