<?xml version="1.0" encoding="utf-8"?>
<!-- Generator: Adobe Illustrator 19.0.0, SVG Export Plug-In . SVG Version: 6.00 Build 0)  -->
<svg version="1.1" id="Слой_1" xmlns="http://www.w3.org/2000/svg" xmlns:xlink="http://www.w3.org/1999/xlink" x="0px" y="0px"
	 viewBox="-444 246 70 70" style="enable-background:new -444 246 70 70;" xml:space="preserve">
<style type="text/css">
	.st0{stroke:#FFFFFF;stroke-miterlimit:10;}
	.st1{fill:#F95D5D;}
</style>
<circle class="st0" cx="-409.1" cy="281.5" r="32"/>
<path class="st1" d="M-409.1,314c-17.9,0-32.5-14.6-32.5-32.5c0-17.9,14.6-32.5,32.5-32.5c17.9,0,32.5,14.6,32.5,32.5
	C-376.6,299.4-391.2,314-409.1,314z M-409.1,250.4c-17.1,0-31,13.9-31,31c0,17.1,13.9,31,31,31c17.1,0,31-13.9,31-31
	C-378.1,264.4-392,250.4-409.1,250.4z"/>
<path class="st1" d="M-409.1,254.2c-15.1,0-27.2,12.2-27.2,27.2s12.2,27.2,27.2,27.2c15.1,0,27.2-12.2,27.2-27.2
	C-381.9,266.5-394.1,254.2-409.1,254.2z M-393.3,289.5c-0.2,3.1-2.6,4.7-5.4,5.5c-0.7,0.2-1.3,0.2-1.9,0.2c-1.1,0-2.1-0.2-3.1-0.5
	c-6.8-2-11.9-6.2-16-11.8c-1.5-2.2-3-4.3-3.5-6.9c-0.5-3.2,0.4-5.8,2.7-8c0.8-0.7,3-1,3.9-0.5c0.3,0.2,0.5,0.5,0.7,0.8
	c0.8,2,1.7,4.1,2.5,6.1c0.2,0.4,0.1,0.8-0.1,1.2c-0.5,0.9-1.2,1.7-1.8,2.5c-0.5,0.5-0.5,1-0.2,1.7c2.4,4,5.7,6.9,10.1,8.6
	c0.7,0.3,1.2,0.2,1.6-0.4c0.8-0.9,1.5-1.8,2.2-2.7c0.5-0.6,1-0.7,1.7-0.5c1.5,0.6,2.8,1.3,4.3,2c0.3,0.2,0.6,0.3,0.9,0.5
	C-393.1,287.9-393.1,287.9-393.3,289.5z"/>
</svg>
