<svg id="Слой_1" xmlns="http://www.w3.org/2000/svg" viewBox="0 0 217.3 136.7"><style>.st0{fill:#F90}.st1{fill:#120606}.st2{fill:#FFF}</style><path id="XMLID_19_" class="st0" d="M166.9 88.5l-45.2-11.6c-6.4-1.6-10.2-8.4-8.5-15l-89.6-23C13.3 36.2 2.8 42.8 0 53.5l21.9 5.6 86.3 22.2 56.7 14.5c-1.4 10.7 4.2 21.4 14.2 25.8 12.2 5.3 26.4-.7 31.7-13.4 5.3-12.7-.2-27.3-12.4-32.6-12-5.2-26 .6-31.5 12.9zm36.5 13.9c-2.2 8.4-10.5 13.6-18.6 11.5-8.1-2.1-12.9-10.6-10.8-19 2.2-8.4 10.5-13.6 18.6-11.5 8.2 2 13 10.5 10.8 19z"/><path id="XMLID_16_" class="st1" d="M167.6 7.8c-8 6.5-11.1 17.1-8.6 26.5l-51.8 30.5-78.3 46.1L9 122.6c5.1 9.6 16.9 12.9 26.2 7.4l81.3-47.8c-3.2-5.9-1.1-13.5 4.7-16.9l40.8-24c.3.5.7 1.1 1.1 1.6 8.1 10.8 23.2 12.5 33.8 3.9 10.6-8.6 12.5-24.3 4.5-35-8.1-10.8-23.3-12.5-33.8-4zm28 11.7c4 7.5 1.3 17.2-6 21.5-7.4 4.3-16.6 1.7-20.6-5.8s-1.3-17.2 6-21.5c7.3-4.3 16.5-1.7 20.6 5.8z"/><ellipse id="XMLID_15_" transform="rotate(-75.594 105.8 77.655)" class="st2" cx="105.8" cy="77.7" rx="4.2" ry="4.1"/></svg>