<svg xmlns="http://www.w3.org/2000/svg" viewBox="0 0 124 72.7"><path fill="#F90" d="M34.9 27.1L57.7 34c3.2 1 5 4.3 4.1 7.6l45 13.5c5.2 1.6 10.6-1.4 12.2-6.6l-11-3.3-43.4-13-28.5-8.5c.8-5.2-1.8-10.6-6.8-13-6.1-2.9-13.4-.3-16.3 5.8-2.9 6.1-.3 13.4 5.8 16.3 6 2.7 13.2.3 16.1-5.7zm-18.2-7.6c1.2-4.1 5.5-6.4 9.6-5.2 4.1 1.2 6.4 5.5 5.2 9.6-1.2 4.1-5.5 6.4-9.6 5.2-4.2-1.3-6.5-5.6-5.2-9.6z"/><path fill="#F95D5D" d="M33.4 66.6c4.1-3 5.9-8.1 4.7-12.8l26.7-13.6 40.3-20.6 10.2-5.2c-2.5-4.8-8.3-6.7-13.2-4.3L60.4 31.5c1.5 3 .3 6.6-2.6 8.2l-21 10.7c-.2-.3-.3-.5-.5-.8-3.9-5.5-11.6-6.7-17-2.8-5.5 3.9-6.7 11.6-2.8 17 3.8 5.5 11.4 6.7 16.9 2.8zm-14-6.4c-1.9-3.8-.4-8.4 3.4-10.4 3.8-1.9 8.4-.4 10.4 3.4 1.9 3.8.4 8.4-3.4 10.4-3.8 1.9-8.5.4-10.4-3.4z"/><circle fill="#FFF" cx="65.4" cy="35.8" r="1.5"/></svg>