<?xml version="1.0" encoding="utf-8"?>
<!-- Generator: Adobe Illustrator 19.0.0, SVG Export Plug-In . SVG Version: 6.00 Build 0)  -->
<svg version="1.1" id="Слой_1" xmlns="http://www.w3.org/2000/svg" xmlns:xlink="http://www.w3.org/1999/xlink" x="0px" y="0px"
	 viewBox="-444 235.2 70 91.8" style="enable-background:new -444 235.2 70 91.8;" xml:space="preserve">
<style type="text/css">
	.st0{fill:#FF9900;}
	.st1{fill:#FFFFFF;}
	.st2{fill-rule:evenodd;clip-rule:evenodd;fill:#FDFDFD;}
</style>
<g>
	<circle class="st0" cx="-409.1" cy="281.6" r="32"/>
	<path class="st1" d="M-409.1,314.1c-17.9,0-32.5-14.6-32.5-32.5S-427,249-409.1,249s32.5,14.6,32.5,32.5S-391.2,314.1-409.1,314.1z
		 M-409.1,250c-17.4,0-31.5,14.1-31.5,31.5c0,17.4,14.1,31.5,31.5,31.5c17.4,0,31.5-14.1,31.5-31.5
		C-377.6,264.2-391.7,250-409.1,250z"/>
</g>
<path class="st1" d="M-409,249.3c-17.9,0-32.5,14.6-32.5,32.5c0,17.9,14.6,32.5,32.5,32.5c17.9,0,32.5-14.6,32.5-32.5
	S-391,249.3-409,249.3z M-409,312.9c-17.1,0-31-13.9-31-31s13.9-31,31-31c17.1,0,31,13.9,31,31S-391.9,312.9-409,312.9z"/>
<path class="st2" d="M-398.9,300c-1.4,0-2.7-0.2-4-0.7c-8.8-2.6-15.5-8.1-20.8-15.3c-2-2.8-3.9-5.6-4.5-9c-0.7-4.1,0.5-7.6,3.5-10.4
	c1-0.9,3.9-1.3,5.1-0.7c0.4,0.2,0.7,0.6,0.9,1c1.1,2.6,2.2,5.3,3.3,7.9c0.2,0.5,0.1,1-0.1,1.5c-0.6,1.2-1.5,2.2-2.4,3.2
	c-0.7,0.7-0.7,1.3-0.2,2.2c3.1,5.2,7.4,9,13.1,11.2c0.9,0.4,1.5,0.2,2.1-0.5c1-1.2,2-2.3,2.8-3.5c0.6-0.8,1.3-0.9,2.2-0.6
	c1.9,0.8,3.7,1.7,5.6,2.6c0.4,0.2,0.8,0.4,1.2,0.6c1.9,1,1.9,1,1.7,3.1c-0.3,4-3.4,6.1-7,7.1C-397.3,300-398.1,300-398.9,300z"/>
</svg>
