<svg class="icon_vk" xmlns="http://www.w3.org/2000/svg" viewBox="0 0 92.5 91.8" width="70" height="70"><circle stroke="#FFF" stroke-miterlimit="10" cx="46.1" cy="46.5" r="42.3"/><g class="background" fill="#fff"><path d="M46.1 89.5c-23.7 0-43-19.3-43-43s19.3-43 43-43 43 19.3 43 43-19.3 43-43 43zm0-84c-22.6 0-41 18.4-41 41s18.4 41 41 41 41-18.4 41-41-18.4-41-41-41z"/><path d="M46.1 10.4c-19.9 0-36 16.1-36 36s16.1 36 36 36 36-16.1 36-36c0-19.8-16.1-36-36-36zm15.8 40.5c.3.4 1 1.1 2.1 2.1l.1.1c2.4 2.3 4.1 4.2 5 5.7.1.1.1.2.2.3.1.1.1.4.2.7.1.3.1.6 0 .9-.1.3-.3.5-.6.7-.4.2-.9.3-1.5.3l-6.6.1c-.4.1-.9 0-1.5-.1-.6-.2-1-.4-1.4-.6l-.5-.3c-.5-.4-1.1-.9-1.8-1.7-.7-.7-1.3-1.4-1.8-2-.5-.6-1-1.1-1.6-1.5-.6-.4-1.1-.5-1.5-.4-.1 0-.1 0-.2.1-.1 0-.2.2-.4.4s-.4.5-.6.8c-.2.3-.3.8-.4 1.3-.1.6-.2 1.3-.2 2 0 .3 0 .5-.1.7-.1.2-.1.4-.2.5l-.1.1c-.3.3-.8.5-1.4.6h-3c-1.2.1-2.5-.1-3.8-.4-1.3-.4-2.4-.8-3.4-1.4-1-.6-1.9-1.1-2.7-1.7-.8-.6-1.4-1.1-1.8-1.5l-.6-.6c-.2-.2-.4-.4-.7-.8-.4-.3-1.1-1.1-2-2.3-.9-1.2-1.9-2.5-2.8-3.9-.9-1.4-2-3.2-3.2-5.5s-2.3-4.6-3.4-7.1c-.1-.3-.2-.5-.2-.7 0-.2 0-.3.1-.4l.1-.2c.3-.3.8-.5 1.5-.5l7.1-.1c.2 0 .4.1.6.2.2.1.3.2.4.2l.1.1c.3.2.5.5.6.8.3.9.7 1.8 1.2 2.7.4.9.8 1.6 1.1 2.1l.4.8c.5 1 1 1.9 1.5 2.7.5.8.9 1.4 1.3 1.8.4.4.7.8 1.1 1 .3.2.6.4.9.4.2 0 .5 0 .7-.1l.1-.1c.1-.1.2-.3.3-.6.2-.3.3-.7.4-1.2.1-.5.2-1.2.2-2.1.1-.9.1-2 0-3.2 0-.7-.1-1.3-.2-1.9-.1-.6-.2-1-.4-1.2l-.2-.3c-.4-.6-1.2-1-2.2-1.1-.2 0-.2-.2.1-.6.3-.3.6-.6 1-.8.9-.4 3-.7 6.2-.6 1.4 0 2.6.1 3.5.3.3.1.6.2.9.4.2.1.4.4.5.6.1.3.2.5.3.8.1.3.1.7.1 1.2v1.4c0 .4 0 1.1-.1 1.8v4.4c0 .3 0 .6.1 1.1.1.4.2.7.3 1 .1.3.3.5.6.6.1 0 .3.1.4.1.2 0 .4-.1.7-.3.3-.2.6-.5 1-.9s.8-1 1.3-1.7c.5-.8 1.1-1.7 1.8-2.8 1-1.8 2-3.7 2.8-5.8.1-.2.2-.3.3-.5l.3-.3.1-.1.1-.1s.1 0 .3-.1c.2-.1.4-.1.5 0l7.5-.1c.7-.1 1.2-.1 1.7.1.4.1.7.3.8.4l.2.3c.4 1.1-.9 3.7-3.9 7.6-.4.6-1 1.3-1.7 2.2-1.3 1.7-2.1 2.9-2.3 3.4-.4.9-.3 1.6.3 2.3z"/></g></svg>